<svg version="1.1" width="512px" height="512px" style="shape-rendering:geometricPrecision; text-rendering:geometricPrecision; image-rendering:optimizeQuality; fill-rule:evenodd; clip-rule:evenodd" xmlns="http://www.w3.org/2000/svg">
  <defs></defs>
  <g>
    <path style="opacity:0.989" fill="#40434f" d="M 72.5,58.5 C 195.877,58.0074 319.21,58.5074 442.5,60C 451.427,63.2603 457.261,69.427 460,78.5C 460.5,106.498 460.667,134.498 460.5,162.5C 323.833,162.5 187.167,162.5 50.5,162.5C 50.3334,134.498 50.5,106.498 51,78.5C 54.526,67.8038 61.6926,61.1371 72.5,58.5 Z M 138.5,91.5 C 157.031,90.2031 167.698,98.7031 170.5,117C 168.582,132.418 159.915,140.918 144.5,142.5C 129.106,140.94 120.439,132.44 118.5,117C 119.811,104.2 126.477,95.7001 138.5,91.5 Z M 360.5,91.5 C 379.029,90.2001 389.695,98.7001 392.5,117C 389.863,134.977 379.529,143.311 361.5,142C 347.185,137.867 340.352,128.367 341,113.5C 343.507,102.5 350.007,95.1666 360.5,91.5 Z"></path>
  </g>
  <g>
    <path style="opacity:0.992" fill="#2b78c3" d="M 50.5,178.5 C 187.167,178.5 323.833,178.5 460.5,178.5C 460.667,263.167 460.5,347.834 460,432.5C 456.649,443.183 449.483,449.683 438.5,452C 316.5,452.667 194.5,452.667 72.5,452C 61.5174,449.683 54.3507,443.183 51,432.5C 50.5,347.834 50.3333,263.167 50.5,178.5 Z M 249.5,196.5 C 267.782,195.613 277.948,204.28 280,222.5C 310.541,233.706 329.874,255.04 338,286.5C 339.848,302.456 341.181,318.456 342,334.5C 343.449,339.399 345.449,344.065 348,348.5C 354.99,358.141 360.156,368.641 363.5,380C 362.268,391.897 355.935,399.564 344.5,403C 331.167,403.333 317.833,403.667 304.5,404C 285.718,433.26 260.385,440.927 228.5,427C 219.454,420.955 212.121,413.288 206.5,404C 193.167,403.667 179.833,403.333 166.5,403C 151.752,397.924 145.919,387.758 149,372.5C 153.162,364.172 157.829,356.172 163,348.5C 165.551,344.065 167.551,339.399 169,334.5C 170.04,319.511 171.04,304.511 172,289.5C 178.893,256.197 198.393,234.03 230.5,223C 231.337,210.137 237.671,201.303 249.5,196.5 Z"></path>
  </g>
  <g>
    <path style="opacity:0.991" fill="#3f444e" d="M 252.5,212.5 C 257.28,211.641 260.78,213.308 263,217.5C 263.499,223.491 263.666,229.491 263.5,235.5C 295.877,241.376 315.71,260.376 323,292.5C 324.182,305.131 324.848,317.797 325,330.5C 326.552,340.156 329.885,349.156 335,357.5C 339.986,364.296 343.82,371.629 346.5,379.5C 346.849,382.971 345.516,385.471 342.5,387C 326.167,387.333 309.833,387.667 293.5,388C 284.767,412.401 267.767,421.735 242.5,416C 229.579,410.747 221.246,401.414 217.5,388C 201.167,387.667 184.833,387.333 168.5,387C 165.484,385.471 164.151,382.971 164.5,379.5C 167.18,371.629 171.014,364.296 176,357.5C 181.115,349.156 184.448,340.156 186,330.5C 186.142,317.131 186.809,303.798 188,290.5C 195.861,259.304 215.695,240.971 247.5,235.5C 247.334,229.491 247.501,223.491 248,217.5C 249.025,215.313 250.525,213.646 252.5,212.5 Z"></path>
  </g>
</svg>